<svg xmlns="http://www.w3.org/2000/svg"  viewBox="0 0 48 48" width="480px" height="480px"><path fill="#d6e5e5" d="M17.361,8.33c3.348-0.073,6.592,0.082,9.94,0.009c1.16-0.025,2.323-0.051,3.474-0.187 c0.238-0.028,0.514-0.086,0.615-0.292c0.116-0.236-0.074-0.499-0.253-0.697c-1.89-2.091-3.78-4.183-5.671-6.274 c-0.193-0.213-0.444-0.448-0.737-0.399c-0.185,0.031-0.325,0.169-0.451,0.3c-2.112,2.188-4.224,4.375-6.336,6.563 C17.732,7.572,17.408,8.038,17.361,8.33z"/><path d="M25.298,8.859c-1.004,0-1.998-0.013-2.973-0.025c-1.616-0.021-3.288-0.041-4.953-0.004c-0.138,0.02-0.29-0.06-0.388-0.172 c-0.098-0.111-0.141-0.261-0.117-0.407c0.071-0.439,0.477-0.996,0.716-1.244l6.337-6.563c0.139-0.145,0.373-0.387,0.729-0.445 c0.595-0.103,1.026,0.377,1.189,0.557l5.671,6.274c0.407,0.451,0.518,0.872,0.33,1.253c-0.231,0.475-0.793,0.542-1.005,0.566 c-1.175,0.139-2.367,0.165-3.521,0.19C26.64,8.854,25.967,8.859,25.298,8.859z M19.363,7.81c1.004,0,1.999,0.013,2.974,0.025 c1.616,0.019,3.287,0.04,4.953,0.004c1.132-0.024,2.3-0.05,3.427-0.183c0.068-0.009,0.119-0.018,0.157-0.025 c-0.024-0.034-0.059-0.077-0.107-0.132l-5.671-6.274c-0.197-0.218-0.275-0.238-0.288-0.24C24.774,0.998,24.677,1.1,24.64,1.138 l-6.337,6.563c-0.033,0.034-0.067,0.073-0.101,0.115C18.59,7.812,18.978,7.81,19.363,7.81z"/><path fill="#d6e5e5" d="M19.812,40.708c-0.395-0.476-0.096-1.198,0.52-1.254c3.29-0.298,6.15-0.3,9.406-0.016 c0.287,0.025,0.627,0.089,0.74,0.354c0.106,0.247-0.051,0.521-0.203,0.742c-1.423,2.074-2.786,3.718-4.424,5.627 c-0.161,0.188-0.337,0.383-0.575,0.45c-0.487,0.136-0.92-0.314-1.243-0.702C23.374,45.115,21.17,42.344,19.812,40.708z"/><path d="M25.094,47.137c-0.688,0-1.205-0.622-1.444-0.909c-0.28-0.336-0.838-1.028-1.491-1.839c-0.886-1.1-1.948-2.419-2.73-3.361 l0,0c-0.302-0.362-0.377-0.858-0.196-1.294c0.181-0.437,0.585-0.734,1.056-0.777c3.284-0.297,6.212-0.302,9.496-0.016 c0.224,0.02,0.91,0.077,1.156,0.655c0.225,0.524-0.12,1.03-0.25,1.221c-1.506,2.193-2.968,3.934-4.457,5.67 c-0.171,0.198-0.428,0.498-0.822,0.606C25.301,47.123,25.195,47.137,25.094,47.137z M25.118,39.729 c-1.552,0-3.101,0.074-4.74,0.223c-0.146,0.014-0.204,0.119-0.223,0.164c-0.019,0.044-0.052,0.16,0.042,0.272l0,0 c0.784,0.945,1.851,2.269,2.74,3.372c0.648,0.806,1.202,1.493,1.48,1.827c0.334,0.401,0.583,0.582,0.726,0.541 c0.102-0.028,0.239-0.188,0.33-0.294c1.471-1.715,2.914-3.433,4.391-5.584c0.112-0.165,0.141-0.242,0.147-0.273 c-0.016,0.006-0.1-0.023-0.315-0.041C28.114,39.799,26.615,39.729,25.118,39.729z"/><path fill="#4b7bb2" d="M39.487,12.781c-9.251-0.173-19.999-0.353-29.835,0.027c-3.383,0.131-3.534,0.623-3.564,2.48 c-0.026,1.618,0.648,1.778,1.419,2.138s1.63,0.353,2.463,0.341c8.926-0.133,19.854-0.644,28.779-0.399 c2.291,0.063,2.748-0.202,3.317-1.474C42.694,14.49,41.593,12.82,39.487,12.781z"/><path d="M9.523,18.271c-0.721,0-1.496-0.051-2.229-0.393l-0.18-0.082c-0.729-0.329-1.557-0.702-1.527-2.517 c0.037-2.251,0.517-2.836,4.045-2.973c9.456-0.365,19.521-0.22,29.864-0.026h-0.001c1.24,0.023,2.276,0.549,2.844,1.441 c0.464,0.731,0.531,1.598,0.183,2.375c-0.68,1.522-1.355,1.836-3.787,1.771c-6.09-0.17-13.064,0.018-19.811,0.194 c-3.098,0.082-6.122,0.162-8.946,0.204C9.83,18.269,9.678,18.271,9.523,18.271z M22.726,13.083c-4.457,0-8.817,0.061-13.054,0.225 c-3.054,0.118-3.058,0.367-3.084,1.988c-0.019,1.157,0.301,1.302,0.938,1.589l0.192,0.088c0.681,0.318,1.479,0.305,2.244,0.294 c2.821-0.042,5.842-0.122,8.936-0.203c6.761-0.178,13.749-0.363,19.864-0.195c2.216,0.06,2.399-0.175,2.848-1.179 c0.208-0.466,0.166-0.987-0.114-1.431c-0.385-0.604-1.12-0.961-2.018-0.978c-0.001,0-0.001,0-0.001,0 C33.791,13.174,28.187,13.083,22.726,13.083z"/><path fill="#4b7bb2" d="M28.917,20.961C21.572,21.034,13.806,21.103,6.7,21.5c-0.39,0.022-0.786,0.131-1.107,0.354 c-0.722,0.501-0.767,1.533-0.74,2.411c0.015,0.482,0.045,1.005,0.36,1.37c0.377,0.437,1.021,0.505,1.598,0.519 c9.895,0.24,20.631,0.211,30.363-0.081c1.168-0.035,3.475,0.069,4.491-0.51c1.016-0.578,1.256-1.467,0.868-2.569 c-0.503-1.426-1.285-1.72-3.868-1.77C35.589,21.166,31.993,20.931,28.917,20.961z"/><path d="M20.447,26.815c-4.611,0-9.22-0.053-13.648-0.16c-0.691-0.018-1.465-0.113-1.965-0.692 c-0.446-0.518-0.467-1.219-0.481-1.683c-0.021-0.691-0.063-2.129,0.955-2.837c0.376-0.262,0.849-0.414,1.365-0.442 c6.971-0.39,14.501-0.464,21.783-0.535l0.456-0.005c1.898-0.021,3.991,0.063,6.019,0.143c1.285,0.05,2.554,0.099,3.744,0.122 c2.665,0.052,3.72,0.377,4.329,2.104c0.482,1.368,0.095,2.493-1.091,3.17c-0.95,0.54-2.727,0.554-4.023,0.564 c-0.259,0.002-0.497,0.004-0.7,0.01C31.829,26.734,26.137,26.815,20.447,26.815z M28.922,21.461l-0.456,0.005 c-7.271,0.071-14.79,0.145-21.737,0.533c-0.333,0.019-0.627,0.11-0.851,0.266c-0.505,0.351-0.549,1.2-0.525,1.985 c0.013,0.427,0.041,0.83,0.238,1.059c0.246,0.284,0.761,0.335,1.232,0.347c9.875,0.24,20.649,0.211,30.337-0.082 c0.209-0.006,0.454-0.008,0.722-0.01c1.12-0.009,2.813-0.021,3.536-0.434c0.77-0.438,0.968-1.046,0.643-1.969 c-0.389-1.102-0.83-1.386-3.405-1.436c-1.196-0.023-2.472-0.073-3.764-0.123C32.876,21.523,30.78,21.44,28.922,21.461 L28.922,21.461z M28.917,20.961h0.01H28.917z"/><path fill="#4b7bb2" d="M27.18,30.502c-5.409-0.131-11.534-0.046-16.935,0.286c-4.158,0.256-4.23,1.04-4.193,2.737 c0.036,1.626,1.065,1.522,1.971,1.68c0.906,0.158,2.831-0.038,3.74-0.178c2.11-0.325,4.253-0.349,6.388-0.353 c6.422-0.01,13.844,0.163,20.257,0.52c0.916,0.051,1.873,0.099,2.712-0.272s1.509-1.302,1.26-2.186 c-0.321-1.139-1.777-1.426-2.958-1.502C35.577,30.984,31.033,30.595,27.18,30.502z"/><path d="M8.917,35.764c-0.368,0-0.709-0.019-0.979-0.066c-0.111-0.02-0.226-0.034-0.339-0.05c-0.799-0.107-2.006-0.27-2.046-2.111 c-0.046-2.102,0.363-2.983,4.662-3.247c5.188-0.319,11.379-0.424,16.978-0.287c2.841,0.069,6.011,0.295,9.077,0.513 c1.094,0.078,2.164,0.154,3.186,0.221c0.727,0.048,2.937,0.191,3.407,1.866c0.329,1.167-0.524,2.329-1.539,2.778 c-0.961,0.425-2.018,0.364-2.942,0.313c-6.116-0.341-13.489-0.503-20.229-0.519c-2.161,0.003-4.27,0.031-6.313,0.347 C11.299,35.604,9.988,35.764,8.917,35.764z M22.247,30.943c-4.116,0-8.296,0.118-11.972,0.344 c-3.767,0.231-3.755,0.774-3.723,2.228c0.021,0.986,0.384,1.035,1.18,1.142c0.126,0.018,0.253,0.034,0.377,0.057 c0.777,0.135,2.562-0.024,3.578-0.18c2.112-0.326,4.263-0.355,6.463-0.358c6.756,0.007,14.151,0.178,20.286,0.521 c0.858,0.048,1.744,0.098,2.483-0.23c0.61-0.27,1.159-0.955,0.979-1.592c-0.186-0.66-1.029-1.043-2.509-1.14 c-1.023-0.066-2.097-0.143-3.192-0.221c-3.055-0.218-6.213-0.442-9.029-0.511l0,0C25.564,30.963,23.91,30.943,22.247,30.943z"/></svg>