<svg xmlns="http://www.w3.org/2000/svg"  viewBox="0 0 48 48" width="480px" height="480px"><path fill="#ede7f6" d="M44,24c0,11.047-8.953,20-20,20S4,35.047,4,24S12.953,4,24,4S44,12.953,44,24z"/><path fill="#3e2723" d="M18,18.301h12v13.5H18V18.301z"/><path fill="#ff1744" d="M24,44c4.5,0,8.602-1.5,11.898-4C35.301,32.602,28,31,28,31h-8c0,0-7.301,1.602-7.898,9 C15.398,42.5,19.5,44,24,44z"/><path fill="#edb405" d="M24,34.801c-1.398,0-3.5-3.801-3.5-3.801v-5h7v5C27.5,31,25.398,34.801,24,34.801"/><path fill="#ffca28" d="M31,23c0,3.699-3.301,7-7,7s-7-3.301-7-7v-6c0-3.699,14-5.699,14,0V23z M24,36c2.898,0,3.5-5,3.5-5 s-1.898,3-3.5,3s-3.5-3-3.5-3S21.102,36,24,36"/><path fill="#784719" d="M26,22c0-0.602,0.398-1,1-1s1,0.398,1,1s-0.398,1-1,1S26,22.602,26,22 M20,22c0,0.602,0.398,1,1,1 s1-0.398,1-1s-0.398-1-1-1S20,21.398,20,22"/><path fill="#795548" d="M24,11c-4.602,0-11,2.102-11,17l5,3.801V21l9-5l3,4v12l5-5c0-3-0.301-14.5-8-14.5L26,11H24z"/></svg>