<?xml version="1.0"?><svg fill="#4a90e2" xmlns="http://www.w3.org/2000/svg"  viewBox="0 0 128 128" width="256px" height="256px">    <path d="M 64 6 C 32 6 6 32 6 64 C 6 96 32 122 64 122 C 96 122 122 96 122 64 C 122 32 96 6 64 6 z M 64 12 C 92.7 12 116 35.3 116 64 C 116 92.7 92.7 116 64 116 C 35.3 116 12 92.7 12 64 C 12 35.3 35.3 12 64 12 z M 64 26 C 62.3 26 61 27.3 61 29 L 61 49 C 61 50.7 62.3 52 64 52 C 65.7 52 67 50.7 67 49 L 67 29 C 67 27.3 65.7 26 64 26 z M 49.201172 35.027344 C 48.619922 34.982813 48.025 35.100391 47.5 35.400391 C 37.3 41.300391 31 52.2 31 64 C 31 82.2 45.8 97 64 97 C 82.2 97 97 82.2 97 64 C 97 52.2 90.7 41.300391 80.5 35.400391 C 79.1 34.600391 77.200391 35.1 76.400391 36.5 C 75.600391 37.9 76.1 39.799609 77.5 40.599609 C 85.8 45.399609 91 54.4 91 64 C 91 78.9 78.9 91 64 91 C 49.1 91 37 78.9 37 64 C 37 54.4 42.2 45.399609 50.5 40.599609 C 51.9 39.799609 52.399609 37.9 51.599609 36.5 C 51.099609 35.625 50.169922 35.101562 49.201172 35.027344 z"/></svg>