<svg xmlns="http://www.w3.org/2000/svg"  viewBox="0 0 100 100" width="400px" height="400px"><path fill="#f37e98" d="M46,27h23c12.703,0,23,10.297,23,23S81.703,73,69,73H46V27z"/><path fill="#f15b6c" d="M91.97,49H46v24h23c12.7,0,23-10.3,23-23C92,49.66,91.99,49.33,91.97,49z"/><path fill="#8f9eb6" d="M34 24A26 26 0 1 0 34 76A26 26 0 1 0 34 24Z"/><path fill="#b3b2c3" d="M34 32A18 18 0 1 0 34 68A18 18 0 1 0 34 32Z"/><path fill="#1f212b" d="M93,49.5c0-0.026-0.011-0.048-0.015-0.072C92.68,36.459,82.042,26,69,26H46.345c-3.703-1.913-7.898-3-12.345-3C19.112,23,7,35.112,7,50s12.112,27,27,27c4.447,0,8.642-1.087,12.345-3H69c13.233,0,24-10.767,24-24c0-0.149-0.009-0.296-0.011-0.444C92.991,49.537,93,49.52,93,49.5z M9,50c0-13.785,11.215-25,25-25s25,11.215,25,25S47.785,75,34,75S9,63.785,9,50z M69,72H49.623C56.501,67.101,61,59.069,61,50h22.5c0.276,0,0.5-0.224,0.5-0.5S83.776,49,83.5,49H60.975c-0.317-8.657-4.728-16.282-11.352-21H69c11.796,0,21.45,9.332,21.975,21H86.5c-0.276,0-0.5,0.224-0.5,0.5s0.224,0.5,0.5,0.5H91C91,62.131,81.131,72,69,72z"/><path fill="#1f212b" d="M22.865 37c.112 0 .225-.038.318-.115.504-.416 1.038-.809 1.588-1.164.232-.15.298-.46.148-.691-.15-.232-.459-.297-.691-.148-.583.377-1.149.792-1.683 1.234-.213.176-.242.491-.066.703C22.578 36.938 22.721 37 22.865 37zM43.228 64.279C40.481 66.06 37.29 67 34 67c-9.374 0-17-7.626-17-17 0-4.352 1.643-8.492 4.626-11.657.189-.201.18-.518-.021-.707-.201-.188-.518-.18-.707.021C17.74 41.009 16 45.392 16 50c0 9.925 8.075 18 18 18 3.483 0 6.862-.996 9.772-2.881.231-.15.298-.46.147-.691C43.769 64.194 43.46 64.131 43.228 64.279zM34 32c-1.568 0-3.125.202-4.628.601-.267.071-.426.345-.355.611.071.268.346.427.612.355C31.047 33.19 32.519 33 34 33c9.374 0 17 7.626 17 17 0 4.606-1.812 8.919-5.103 12.143-.197.193-.2.51-.007.707C45.988 62.95 46.118 63 46.248 63c.126 0 .252-.048.35-.143C50.082 59.443 52 54.878 52 50 52 40.075 43.925 32 34 32zM26.5 34.685c.072 0 .146-.016.215-.049.318-.151.642-.293.971-.425.256-.103.381-.394.278-.649-.104-.257-.395-.38-.65-.278-.349.14-.692.289-1.029.45-.249.119-.355.417-.236.666C26.134 34.58 26.313 34.685 26.5 34.685z"/></svg>