<svg xmlns="http://www.w3.org/2000/svg"  viewBox="0 0 100 100" width="400px" height="400px"><path fill="#52bfa1" d="M54,27H31C18.297,27,8,37.297,8,50s10.297,23,23,23h23V27z"/><path fill="#00ac9c" d="M8.03,49H54v24H31C18.3,73,8,62.7,8,50C8,49.66,8.01,49.33,8.03,49z"/><path fill="#8f9eb6" d="M66 24A26 26 0 1 0 66 76A26 26 0 1 0 66 24Z"/><path fill="#b3b2c3" d="M66 32A18 18 0 1 0 66 68A18 18 0 1 0 66 32Z"/><path fill="#1f212b" d="M66,23c-4.447,0-8.642,1.087-12.345,3H31C17.958,26,7.32,36.459,7.015,49.428C7.011,49.452,7,49.474,7,49.5c0,0.02,0.009,0.037,0.011,0.056C7.009,49.704,7,49.851,7,50c0,13.233,10.767,24,24,24h22.655c3.703,1.913,7.898,3,12.345,3c14.888,0,27-12.112,27-27S80.888,23,66,23z M31,72C18.869,72,9,62.131,9,50h4.5c0.276,0,0.5-0.224,0.5-0.5S13.776,49,13.5,49H9.025C9.55,37.332,19.204,28,31,28h19.377c-6.624,4.718-11.034,12.343-11.352,21H16.5c-0.276,0-0.5,0.224-0.5,0.5s0.224,0.5,0.5,0.5H39c0,9.069,4.499,17.101,11.377,22H31z M66,75c-13.785,0-25-11.215-25-25s11.215-25,25-25s25,11.215,25,25S79.785,75,66,75z"/><path fill="#1f212b" d="M75.229 35.721c.55.355 1.084.747 1.589 1.164C76.91 36.962 77.023 37 77.136 37c.144 0 .286-.062.385-.182.177-.212.146-.527-.066-.703-.534-.442-1.101-.857-1.683-1.234-.229-.149-.54-.085-.691.148C74.931 35.261 74.997 35.57 75.229 35.721zM79.102 37.657c-.19-.201-.506-.21-.707-.021-.201.189-.211.506-.021.707C81.356 41.508 83 45.647 83 50c0 9.374-7.626 17-17 17-3.29 0-6.48-.94-9.229-2.721-.229-.146-.54-.085-.691.148-.149.231-.084.541.148.691C59.138 67.004 62.517 68 66 68c9.925 0 18-8.075 18-18C84 45.392 82.26 41.009 79.102 37.657zM49 50c0-9.374 7.626-17 17-17 1.482 0 2.953.19 4.372.567.27.074.541-.089.611-.355s-.088-.54-.355-.611C69.126 32.202 67.568 32 66 32c-9.925 0-18 8.075-18 18 0 4.878 1.919 9.444 5.403 12.857C53.5 62.952 53.627 63 53.753 63c.13 0 .26-.05.357-.15.193-.197.189-.514-.008-.707C50.812 58.92 49 54.607 49 50zM72.314 34.211c.329.132.652.273.971.425.069.033.143.049.215.049.187 0 .366-.105.451-.285.119-.249.013-.548-.236-.666-.338-.161-.681-.311-1.029-.45-.254-.103-.547.021-.649.278C71.934 33.817 72.058 34.108 72.314 34.211z"/></svg>