<svg xmlns="http://www.w3.org/2000/svg"  viewBox="0 0 100 100" width="200px" height="200px"><path fill="#ee3e54" d="M13 27A2 2 0 1 0 13 31A2 2 0 1 0 13 27Z"/><path fill="#f1bc19" d="M77 12A1 1 0 1 0 77 14A1 1 0 1 0 77 12Z"/><path fill="#fce0a2" d="M50 13A37 37 0 1 0 50 87A37 37 0 1 0 50 13Z"/><path fill="#f1bc19" d="M83 11A4 4 0 1 0 83 19A4 4 0 1 0 83 11Z"/><path fill="#ee3e54" d="M87 22A2 2 0 1 0 87 26A2 2 0 1 0 87 22Z"/><path fill="#fbcd59" d="M81 74A2 2 0 1 0 81 78 2 2 0 1 0 81 74zM15 59A4 4 0 1 0 15 67 4 4 0 1 0 15 59z"/><path fill="#ee3e54" d="M25 85A2 2 0 1 0 25 89A2 2 0 1 0 25 85Z"/><path fill="#fff" d="M18.5 51A2.5 2.5 0 1 0 18.5 56A2.5 2.5 0 1 0 18.5 51Z"/><path fill="#f1bc19" d="M21 66A1 1 0 1 0 21 68A1 1 0 1 0 21 66Z"/><path fill="#fff" d="M80 33A1 1 0 1 0 80 35A1 1 0 1 0 80 33Z"/><g><path fill="#a1d3a2" d="M38,64.3c-7.885,0-14.3-6.415-14.3-14.3S30.115,35.7,38,35.7h24c7.885,0,14.3,6.415,14.3,14.3 S69.885,64.3,62,64.3H38z"/><path fill="#472b29" d="M62,36.4c7.499,0,13.6,6.101,13.6,13.6S69.499,63.6,62,63.6H38c-7.499,0-13.6-6.101-13.6-13.6 S30.501,36.4,38,36.4H62 M62,35H38c-8.284,0-15,6.716-15,15s6.716,15,15,15h24c8.284,0,15-6.716,15-15S70.284,35,62,35L62,35z"/></g><g><path fill="#afabd4" d="M62 35.7A14.3 14.3 0 1 0 62 64.3A14.3 14.3 0 1 0 62 35.7Z"/><path fill="#472b29" d="M62,36.4c7.499,0,13.6,6.101,13.6,13.6S69.499,63.6,62,63.6S48.4,57.499,48.4,50 S54.501,36.4,62,36.4 M62,35c-8.284,0-15,6.716-15,15s6.716,15,15,15s15-6.716,15-15S70.284,35,62,35L62,35z"/></g><g><path fill="#e4e4f9" d="M62 40.5A9.5 9.5 0 1 0 62 59.5A9.5 9.5 0 1 0 62 40.5Z"/></g><g><path fill="#472b29" d="M54.019,55.654c-0.163,0-0.324-0.08-0.42-0.229C52.553,53.811,52,51.934,52,50 c0-5.514,4.486-10,10-10c1.157,0,2.292,0.196,3.373,0.583c0.26,0.093,0.395,0.379,0.302,0.64c-0.093,0.26-0.379,0.395-0.64,0.302 C64.063,41.177,63.042,41,62,41c-4.963,0-9,4.037-9,9c0,1.741,0.497,3.429,1.438,4.883c0.149,0.231,0.084,0.541-0.148,0.691 C54.206,55.628,54.112,55.654,54.019,55.654z"/></g><g><path fill="#472b29" d="M62,60c-2.67,0-5.182-1.04-7.071-2.929c-0.195-0.195-0.195-0.512,0-0.707s0.512-0.195,0.707,0 C57.336,58.063,59.597,59,62,59c4.963,0,9-4.037,9-9c0-0.648-0.069-1.296-0.206-1.924c-0.059-0.27,0.112-0.536,0.382-0.595 c0.269-0.055,0.536,0.11,0.595,0.382C71.923,48.562,72,49.28,72,50C72,55.514,67.514,60,62,60z"/></g><g><path fill="#472b29" d="M70.712,46.707c-0.192,0-0.377-0.112-0.459-0.301c-0.29-0.669-0.665-1.304-1.114-1.888 c-0.168-0.219-0.127-0.532,0.092-0.701c0.218-0.167,0.531-0.129,0.701,0.092c0.499,0.648,0.916,1.354,1.239,2.099 c0.109,0.253-0.007,0.548-0.26,0.658C70.847,46.693,70.778,46.707,70.712,46.707z"/></g><g><path fill="#472b29" d="M68.25,43.346c-0.117,0-0.234-0.041-0.329-0.124c-0.364-0.318-0.755-0.608-1.161-0.862 c-0.234-0.146-0.306-0.454-0.159-0.688c0.147-0.234,0.458-0.305,0.688-0.159c0.451,0.281,0.886,0.604,1.29,0.958 c0.208,0.182,0.229,0.497,0.047,0.705C68.527,43.288,68.389,43.346,68.25,43.346z"/></g><g><path fill="#472b29" d="M26.5,51.006c-0.275,0-0.5-0.224-0.5-0.499c0-0.276,0.223-0.501,0.499-0.501l4-0.006H30.5 c0.275,0,0.5,0.224,0.5,0.499C31,50.775,30.777,51,30.501,51L26.5,51.006L26.5,51.006z"/></g><g><path fill="#472b29" d="M35.5,51.016h-3c-0.276,0-0.5-0.224-0.5-0.5s0.224-0.5,0.5-0.5h3c0.276,0,0.5,0.224,0.5,0.5 S35.776,51.016,35.5,51.016z"/></g><g><path fill="#472b29" d="M47.5,51h-10c-0.276,0-0.5-0.224-0.5-0.5s0.224-0.5,0.5-0.5h10c0.276,0,0.5,0.224,0.5,0.5 S47.776,51,47.5,51z"/></g></svg>