<svg xmlns="http://www.w3.org/2000/svg"  viewBox="0 0 64 64" width="512px" height="512px"><linearGradient id="AdNruHpw4TYRB7Hg3~Abia" x1="32" x2="32" y1="25" y2="55" gradientUnits="userSpaceOnUse" spreadMethod="reflect"><stop offset="0" stop-color="#6dc7ff"/><stop offset="1" stop-color="#e6abff"/></linearGradient><path fill="url(#AdNruHpw4TYRB7Hg3~Abia)" d="M32,25c-8.271,0-15,6.729-15,15s6.729,15,15,15s15-6.729,15-15S40.271,25,32,25z M34,42.578 V46c0,1.105-0.895,2-2,2s-2-0.895-2-2v-3.422c-1.764-0.772-3-2.529-3-4.578c0-2.761,2.239-5,5-5s5,2.239,5,5 C37,40.049,35.764,41.806,34,42.578z"/><linearGradient id="AdNruHpw4TYRB7Hg3~Abib" x1="32" x2="32" y1="2" y2="62.513" gradientUnits="userSpaceOnUse" spreadMethod="reflect"><stop offset="0" stop-color="#1a6dff"/><stop offset="1" stop-color="#c822ff"/></linearGradient><path fill="url(#AdNruHpw4TYRB7Hg3~Abib)" d="M43,22.145L43,22.145V18c0-1.103-0.897-2-2-2h-1h-2h-1c-1.103,0-2,0.897-2,2v1.24l0,0 C34.017,19.098,33.021,19,32,19s-2.017,0.098-3,0.24l0,0V18c0-1.103-0.897-2-2-2h-1v-5c0-3.309,2.691-6,6-6s6,2.691,6,6v1h2v-1 c0-4.411-3.589-8-8-8s-8,3.589-8,8v5h-1c-1.103,0-2,0.897-2,2v4.145l0,0C15.011,25.849,11,32.456,11,40c0,11.58,9.42,21,21,21 s21-9.42,21-21C53,32.456,48.989,25.849,43,22.145z M37,19.627V18h4v3.055c-0.634-0.302-1.283-0.573-1.95-0.812 c-0.002-0.001-0.004-0.001-0.006-0.002C38.377,20.003,37.696,19.798,37,19.627L37,19.627z M23,18h4v1.627l0,0 c-0.696,0.171-1.377,0.376-2.044,0.615c-0.002,0.001-0.004,0.001-0.006,0.002c-0.667,0.239-1.316,0.509-1.95,0.812V18z M32,59 c-10.477,0-19-8.523-19-19s8.523-19,19-19s19,8.523,19,19S42.477,59,32,59z"/></svg>